<svg width="51" height="51" xmlns="http://www.w3.org/2000/svg" xmlns:xlink="http://www.w3.org/1999/xlink" overflow="hidden"><defs><clipPath id="clip0"><rect x="215" y="127" width="51" height="51"/></clipPath></defs><g clip-path="url(#clip0)" transform="translate(-215 -127)"><path d="M246.344 149.844C246.344 153.365 243.49 156.219 239.969 156.219 236.448 156.219 233.594 153.365 233.594 149.844 233.594 146.323 236.448 143.469 239.969 143.469 243.49 143.469 246.344 146.323 246.344 149.844Z"/><path d="M253.25 142.512C253.25 143.686 252.299 144.637 251.125 144.637 249.951 144.637 249 143.686 249 142.512 249 141.339 249.951 140.387 251.125 140.387 252.299 140.387 253.25 141.339 253.25 142.512Z"/><path d="M229.875 166.95C229.875 168.124 228.924 169.075 227.75 169.075 226.576 169.075 225.625 168.124 225.625 166.95 225.625 165.776 226.576 164.825 227.75 164.825 228.924 164.825 229.875 165.776 229.875 166.95Z"/><path d="M261.006 140.919C259.253 137.678 255.375 135.925 250.169 135.925 245.175 135.925 239.491 137.519 234.125 140.494 222.65 146.709 216.434 156.75 219.994 163.284 220.844 164.719 222.066 165.941 223.553 166.684 223.606 165.941 223.819 165.25 224.244 164.666 223.234 164.081 222.438 163.284 221.906 162.275 218.984 156.962 225.094 147.825 235.241 142.3 240.288 139.538 245.653 137.997 250.275 137.997 254.684 137.997 257.872 139.378 259.253 141.875 260.634 144.372 260.05 147.825 257.712 151.491 255.216 155.369 251.019 159.034 245.972 161.85 241.297 164.4 236.409 165.887 232.053 166.1 232.106 166.366 232.159 166.631 232.159 166.95 232.159 167.375 232.053 167.8 231.947 168.225 236.675 168.012 241.988 166.472 247.034 163.709 252.4 160.788 256.862 156.856 259.572 152.659 262.175 148.303 262.759 144.106 261.006 140.919Z"/><path d="M253.887 145.753C253.356 146.231 252.666 146.55 251.975 146.709 252.825 149.844 249.266 154.731 243.634 157.812 240.553 159.512 237.312 160.416 234.55 160.416 231.947 160.416 230.141 159.619 229.344 158.184 228.6 156.856 228.866 155.05 230.034 153.084 229.822 151.863 229.875 150.587 230.141 149.366 229.556 150.003 228.972 150.747 228.494 151.491 226.688 154.359 226.316 157.069 227.484 159.194 228.653 161.319 231.15 162.488 234.55 162.488 237.684 162.488 241.297 161.478 244.644 159.619 251.55 155.9 255.428 149.95 253.887 145.753Z"/></g></svg>