<svg width="40" height="40" xmlns="http://www.w3.org/2000/svg" xmlns:xlink="http://www.w3.org/1999/xlink" overflow="hidden"><defs><clipPath id="clip0"><rect x="361" y="132" width="40" height="40"/></clipPath></defs><g clip-path="url(#clip0)" transform="translate(-361 -132)"><path d="M398.111 156.154C397.193 156.157 396.385 156.763 396.124 157.644L386.004 156.751C385.887 155.62 384.875 154.798 383.744 154.915 383.502 154.94 383.267 155.007 383.048 155.115L379.939 151.01C380.785 150.237 380.844 148.925 380.071 148.079 379.397 147.341 378.293 147.189 377.444 147.717L375.251 144.822C375.899 143.874 375.655 142.581 374.707 141.933 373.759 141.285 372.466 141.529 371.818 142.477 371.764 142.557 371.715 142.64 371.672 142.727L365.99 142.443C365.781 141.312 364.695 140.565 363.564 140.774 362.433 140.983 361.685 142.069 361.894 143.2 362.103 144.331 363.189 145.078 364.32 144.869 365.141 144.718 365.792 144.091 365.974 143.276L371.455 143.551C371.453 143.585 371.444 143.618 371.444 143.654 371.441 144.801 372.367 145.733 373.514 145.737 373.916 145.738 374.31 145.623 374.647 145.405L376.831 148.287C376.16 149.212 376.366 150.505 377.291 151.176 377.85 151.582 378.574 151.682 379.221 151.443L382.386 155.619C381.625 156.473 381.701 157.781 382.554 158.541 382.836 158.793 383.182 158.962 383.554 159.031L383.801 162.49C382.695 162.798 382.048 163.943 382.355 165.049 382.663 166.155 383.809 166.802 384.915 166.494 385.502 166.331 385.988 165.918 386.244 165.364L391.95 166.723C392.26 167.827 393.406 168.472 394.511 168.162 395.616 167.853 396.26 166.706 395.951 165.601 395.799 165.059 395.434 164.602 394.939 164.335L397.423 160.194C397.643 160.275 397.876 160.318 398.111 160.32 399.262 160.32 400.195 159.388 400.195 158.237 400.195 157.087 399.262 156.154 398.111 156.154ZM363.944 144.07C363.254 144.07 362.694 143.511 362.694 142.82 362.694 142.13 363.254 141.57 363.944 141.57 364.635 141.57 365.194 142.13 365.194 142.82 365.194 143.511 364.634 144.07 363.944 144.07ZM372.278 143.654C372.278 142.963 372.837 142.404 373.528 142.404 374.218 142.404 374.778 142.963 374.778 143.654 374.778 144.344 374.218 144.904 373.528 144.904 372.838 144.903 372.279 144.344 372.278 143.654ZM377.278 149.487C377.278 148.797 377.837 148.237 378.528 148.237 379.218 148.237 379.778 148.797 379.778 149.487 379.778 150.178 379.218 150.737 378.528 150.737 377.838 150.736 377.279 150.177 377.278 149.487ZM382.694 156.987C382.694 156.297 383.254 155.737 383.944 155.737 384.635 155.737 385.194 156.297 385.194 156.987 385.194 157.678 384.635 158.237 383.944 158.237 383.254 158.236 382.695 157.677 382.694 156.987ZM384.361 165.737C383.671 165.737 383.111 165.178 383.111 164.487 383.111 163.797 383.671 163.237 384.361 163.237 385.052 163.237 385.611 163.797 385.611 164.487 385.61 165.177 385.051 165.736 384.361 165.737ZM393.944 167.404C393.254 167.404 392.694 166.844 392.694 166.154 392.694 165.463 393.254 164.904 393.944 164.904 394.635 164.904 395.194 165.463 395.194 166.154 395.194 166.844 394.634 167.403 393.944 167.404ZM394.115 164.088C394.058 164.083 394.003 164.07 393.944 164.07 392.913 164.074 392.04 164.831 391.892 165.852L386.438 164.553C386.438 164.531 386.444 164.51 386.444 164.487 386.441 163.444 385.666 162.565 384.632 162.431L384.388 159.02C385.126 158.856 385.716 158.305 385.931 157.581L396.052 158.474C396.107 158.97 396.34 159.429 396.708 159.767ZM398.111 159.487C397.421 159.487 396.861 158.928 396.861 158.237 396.861 157.547 397.421 156.987 398.111 156.987 398.802 156.987 399.361 157.547 399.361 158.237 399.36 158.927 398.801 159.486 398.111 159.487Z"/><path d="M395.611 148.799C396.13 146.944 397.42 145.4 399.153 144.56 397.417 143.722 396.127 142.177 395.611 140.321 395.092 142.176 393.803 143.719 392.069 144.56 393.803 145.4 395.092 146.944 395.611 148.799ZM395.61 142.378C396.1 143.225 396.751 143.966 397.527 144.561 396.752 145.156 396.101 145.897 395.611 146.742 395.121 145.896 394.469 145.155 393.693 144.56 394.468 143.965 395.12 143.224 395.61 142.378Z"/><path d="M368.465 158.237C368.108 159.514 367.22 160.576 366.028 161.154 367.22 161.732 368.108 162.794 368.465 164.071 368.822 162.794 369.709 161.732 370.901 161.154 369.707 160.578 368.819 159.515 368.465 158.237ZM368.465 162.172C368.207 161.796 367.902 161.454 367.557 161.154 367.901 160.854 368.206 160.513 368.464 160.137 368.722 160.513 369.026 160.855 369.371 161.155 369.027 161.454 368.722 161.796 368.465 162.172Z"/><path d="M388.528 139.68C388.747 138.897 389.292 138.245 390.024 137.89 389.291 137.536 388.746 136.883 388.528 136.099 388.309 136.883 387.764 137.535 387.032 137.89 387.764 138.245 388.309 138.897 388.528 139.68Z"/></g></svg>