<svg width="37" height="37" xmlns="http://www.w3.org/2000/svg" xmlns:xlink="http://www.w3.org/1999/xlink" overflow="hidden"><defs><clipPath id="clip0"><rect x="590" y="134" width="37" height="37"/></clipPath></defs><g clip-path="url(#clip0)" transform="translate(-590 -134)"><path d="M598.865 152.693C598.865 154.502 597.398 155.969 595.589 155.969 593.779 155.969 592.312 154.502 592.312 152.693 592.312 150.883 593.779 149.417 595.589 149.417 597.398 149.417 598.865 150.883 598.865 152.693Z"/><path d="M611.583 152.693C611.583 154.502 610.117 155.969 608.307 155.969 606.498 155.969 605.031 154.502 605.031 152.693 605.031 150.883 606.498 149.417 608.307 149.417 610.117 149.417 611.583 150.883 611.583 152.693Z"/><path d="M624.302 152.693C624.302 154.502 622.835 155.969 621.026 155.969 619.217 155.969 617.75 154.502 617.75 152.693 617.75 150.883 619.217 149.417 621.026 149.417 622.835 149.417 624.302 150.883 624.302 152.693Z"/></g></svg>